HIERARCHY
ROOT newVegas:Hips
{
	OFFSET 0.000000 96.479958 0.000000
	CHANNELS 6 Xposition Yposition Zposition Xrotation Yrotation Zrotation
	JOINT newVegas:Pelvis
	{
		OFFSET 0.000000 0.000000 0.000000
		CHANNELS 3 Xrotation Yrotation Zrotation
		JOINT newVegas:LeftUpLeg
		{
			OFFSET 18.735201 -5.666702 -4.541200
			CHANNELS 3 Xrotation Yrotation Zrotation
			JOINT newVegas:LeftLeg
			{
				OFFSET -0.021200 -31.938179 0.493100
				CHANNELS 3 Xrotation Yrotation Zrotation
				JOINT newVegas:LeftFoot
				{
					OFFSET 0.021200 -31.938179 -4.336299
					CHANNELS 3 Xrotation Yrotation Zrotation
					JOINT newVegas:LeftToeBase
					{
						OFFSET 0.943001 -26.722000 15.023500
						CHANNELS 3 Xrotation Yrotation Zrotation
						End Site
						{
							OFFSET 0.000000 30.670183 0.000000
						}
					}
				}
				JOINT newVegas:Left_PantLeg
				{
					OFFSET 0.663870 -9.044666 -1.108900
					CHANNELS 3 Xrotation Yrotation Zrotation
					End Site
					{
						OFFSET 1.415995 20.635357 0.000000
					}
				}
			}
		}
		JOINT newVegas:RightUpLeg
		{
			OFFSET -18.735201 -5.666702 -4.541200
			CHANNELS 3 Xrotation Yrotation Zrotation
			JOINT newVegas:RightLeg
			{
				OFFSET 0.018946 -31.938133 0.493100
				CHANNELS 3 Xrotation Yrotation Zrotation
				JOINT newVegas:RightFoot
				{
					OFFSET -0.018946 -31.938126 -4.336299
					CHANNELS 3 Xrotation Yrotation Zrotation
					JOINT newVegas:RightToeBase
					{
						OFFSET -0.943001 -26.722004 15.023500
						CHANNELS 3 Xrotation Yrotation Zrotation
						End Site
						{
							OFFSET 0.000000 30.670187 0.000000
						}
					}
				}
				JOINT newVegas:Right_PantLeg
				{
					OFFSET -0.661674 -9.044716 -1.108900
					CHANNELS 3 Xrotation Yrotation Zrotation
					End Site
					{
						OFFSET -1.415958 20.635269 0.000000
					}
				}
			}
		}
	}
	JOINT newVegas:Spine
	{
		OFFSET 0.000000 10.199997 -0.299500
		CHANNELS 3 Xrotation Yrotation Zrotation
		JOINT newVegas:Spine1
		{
			OFFSET 0.000000 11.900002 -1.516600
			CHANNELS 3 Xrotation Yrotation Zrotation
			JOINT newVegas:Spine2
			{
				OFFSET 0.000000 13.600006 -2.842500
				CHANNELS 3 Xrotation Yrotation Zrotation
				JOINT newVegas:Neck
				{
					OFFSET 0.000000 9.624100 -2.890100
					CHANNELS 3 Xrotation Yrotation Zrotation
					JOINT newVegas:Head
					{
						OFFSET 0.000000 14.068802 -1.351900
						CHANNELS 3 Xrotation Yrotation Zrotation
						JOINT newVegas:Hair_Back
						{
							OFFSET 0.000000 3.231903 -17.524799
							CHANNELS 3 Xrotation Yrotation Zrotation
							End Site
							{
								OFFSET 0.000000 19.849884 0.000000
							}
						}
						JOINT newVegas:Hair_Front
						{
							OFFSET 0.000000 31.260406 4.573800
							CHANNELS 3 Xrotation Yrotation Zrotation
							JOINT newVegas:Hair_Front1
							{
								OFFSET 0.000000 2.284103 11.993300
								CHANNELS 3 Xrotation Yrotation Zrotation
								JOINT newVegas:Hair_Front2
								{
									OFFSET 0.000000 2.284103 11.993300
									CHANNELS 3 Xrotation Yrotation Zrotation
									End Site
									{
										OFFSET 0.000000 12.208862 0.000000
									}
								}
							}
						}
						JOINT newVegas:Jowel
						{
							OFFSET 0.000000 -7.458206 6.864100
							CHANNELS 3 Xrotation Yrotation Zrotation
							End Site
							{
								OFFSET 0.000000 19.849884 0.000000
							}
						}
					}
				}
				JOINT newVegas:LeftShoulder
				{
					OFFSET 15.263000 10.923401 -0.547700
					CHANNELS 3 Xrotation Yrotation Zrotation
					JOINT newVegas:LeftArm
					{
						OFFSET 25.438599 -2.830597 -13.032500
						CHANNELS 3 Xrotation Yrotation Zrotation
						JOINT newVegas:LeftForeArm
						{
							OFFSET 29.960503 0.000000 0.000000
							CHANNELS 3 Xrotation Yrotation Zrotation
							JOINT newVegas:LeftHand
							{
								OFFSET 27.849251 0.000000 0.000000
								CHANNELS 3 Xrotation Yrotation Zrotation
								JOINT newVegas:LeftHandThumb1
								{
									OFFSET 4.487587 -3.305161 6.305391
									CHANNELS 3 Xrotation Yrotation Zrotation
									JOINT newVegas:LeftHandThumb2
									{
										OFFSET 5.480453 -3.164139 3.164143
										CHANNELS 3 Xrotation Yrotation Zrotation
										JOINT newVegas:LeftHandThumb3
										{
											OFFSET 5.159721 -2.978973 2.978967
											CHANNELS 3 Xrotation Yrotation Zrotation
											End Site
											{
												OFFSET 2.494507 5.926697 1.738678
											}
										}
									}
								}
								JOINT newVegas:LeftHandIndex1
								{
									OFFSET 18.578728 -0.527832 5.208049
									CHANNELS 3 Xrotation Yrotation Zrotation
									JOINT newVegas:LeftHandIndex2
									{
										OFFSET 3.192009 0.000000 0.000000
										CHANNELS 3 Xrotation Yrotation Zrotation
										JOINT newVegas:LeftHandIndex3
										{
											OFFSET 3.835129 0.000000 0.000000
											CHANNELS 3 Xrotation Yrotation Zrotation
											End Site
											{
												OFFSET -0.034599 3.816971 0.371180
											}
										}
									}
								}
								JOINT newVegas:LeftHandMiddle1
								{
									OFFSET 18.476105 0.000000 0.000000
									CHANNELS 3 Xrotation Yrotation Zrotation
									JOINT newVegas:LeftHandMiddle2
									{
										OFFSET 3.324875 0.000000 0.000000
										CHANNELS 3 Xrotation Yrotation Zrotation
										JOINT newVegas:LeftHandMiddle3
										{
											OFFSET 4.596550 0.000000 0.000000
											CHANNELS 3 Xrotation Yrotation Zrotation
											End Site
											{
												OFFSET 0.057701 4.578827 0.399218
											}
										}
									}
								}
								JOINT newVegas:LeftHandRing1
								{
									OFFSET 17.732719 0.121887 -4.201567
									CHANNELS 3 Xrotation Yrotation Zrotation
									JOINT newVegas:LeftHandRing2
									{
										OFFSET 2.733170 0.000000 0.000000
										CHANNELS 3 Xrotation Yrotation Zrotation
										JOINT newVegas:LeftHandRing3
										{
											OFFSET 3.178268 0.000000 0.000000
											CHANNELS 3 Xrotation Yrotation Zrotation
											End Site
											{
												OFFSET 0.119102 3.170624 0.185394
											}
										}
									}
								}
								JOINT newVegas:LeftHandPinky1
								{
									OFFSET 15.989624 -0.606689 -7.535461
									CHANNELS 3 Xrotation Yrotation Zrotation
									JOINT newVegas:LeftHandPinky2
									{
										OFFSET 2.538986 0.000000 0.000000
										CHANNELS 3 Xrotation Yrotation Zrotation
										JOINT newVegas:LeftHandPinky3
										{
											OFFSET 2.593102 0.000000 0.000000
											CHANNELS 3 Xrotation Yrotation Zrotation
											End Site
											{
												OFFSET -0.150902 2.584198 0.152708
											}
										}
									}
								}
							}
							JOINT newVegas:Left_Sleeve
							{
								OFFSET 0.267448 -0.649796 0.577675
								CHANNELS 3 Xrotation Yrotation Zrotation
								End Site
								{
									OFFSET 0.000000 15.991241 0.000000
								}
							}
							JOINT newVegas:Left_CapeC
							{
								OFFSET 15.715958 -8.608795 -6.935905
								CHANNELS 3 Xrotation Yrotation Zrotation
								JOINT newVegas:Left_CapeC1
								{
									OFFSET 0.000000 -8.688499 0.000000
									CHANNELS 3 Xrotation Yrotation Zrotation
									End Site
									{
										OFFSET 0.000000 8.688499 0.000000
									}
								}
							}
						}
						JOINT newVegas:Left_CapeB
						{
							OFFSET 26.118385 -8.608795 -7.079235
							CHANNELS 3 Xrotation Yrotation Zrotation
							JOINT newVegas:Left_CapeB1
							{
								OFFSET 0.000000 -8.688499 0.000000
								CHANNELS 3 Xrotation Yrotation Zrotation
								End Site
								{
									OFFSET 0.000000 8.688499 0.000000
								}
							}
						}
						JOINT newVegas:Left_CapeA
						{
							OFFSET 5.115639 -8.608795 -10.395809
							CHANNELS 3 Xrotation Yrotation Zrotation
							JOINT newVegas:Left_CapeA1
							{
								OFFSET 0.000000 -8.688499 0.000000
								CHANNELS 3 Xrotation Yrotation Zrotation
								End Site
								{
									OFFSET 0.000000 8.688499 0.000000
								}
							}
						}
					}
				}
				JOINT newVegas:RightShoulder
				{
					OFFSET -15.263000 10.923401 -0.547700
					CHANNELS 3 Xrotation Yrotation Zrotation
					JOINT newVegas:RightArm
					{
						OFFSET -25.438599 -2.830597 -13.032500
						CHANNELS 3 Xrotation Yrotation Zrotation
						JOINT newVegas:RightForeArm
						{
							OFFSET -29.960503 0.000000 0.000000
							CHANNELS 3 Xrotation Yrotation Zrotation
							JOINT newVegas:RightHand
							{
								OFFSET -27.849251 0.000000 0.000000
								CHANNELS 3 Xrotation Yrotation Zrotation
								JOINT newVegas:RightHandThumb1
								{
									OFFSET -4.487587 -3.305161 6.305391
									CHANNELS 3 Xrotation Yrotation Zrotation
									JOINT newVegas:RightHandThumb2
									{
										OFFSET -5.480453 -3.164139 3.164143
										CHANNELS 3 Xrotation Yrotation Zrotation
										JOINT newVegas:RightHandThumb3
										{
											OFFSET -5.159721 -2.978973 2.978967
											CHANNELS 3 Xrotation Yrotation Zrotation
											End Site
											{
												OFFSET -2.494507 5.926697 1.738678
											}
										}
									}
								}
								JOINT newVegas:RightHandIndex1
								{
									OFFSET -18.578728 -0.527832 5.208049
									CHANNELS 3 Xrotation Yrotation Zrotation
									JOINT newVegas:RightHandIndex2
									{
										OFFSET -3.192009 0.000000 0.000000
										CHANNELS 3 Xrotation Yrotation Zrotation
										JOINT newVegas:RightHandIndex3
										{
											OFFSET -3.835129 0.000000 0.000000
											CHANNELS 3 Xrotation Yrotation Zrotation
											End Site
											{
												OFFSET 0.034599 3.816971 0.371180
											}
										}
									}
								}
								JOINT newVegas:RightHandMiddle1
								{
									OFFSET -18.476105 0.000000 0.000000
									CHANNELS 3 Xrotation Yrotation Zrotation
									JOINT newVegas:RightHandMiddle2
									{
										OFFSET -3.324875 0.000000 0.000000
										CHANNELS 3 Xrotation Yrotation Zrotation
										JOINT newVegas:RightHandMiddle3
										{
											OFFSET -4.596550 0.000000 0.000000
											CHANNELS 3 Xrotation Yrotation Zrotation
											End Site
											{
												OFFSET -0.057701 4.578827 0.399218
											}
										}
									}
								}
								JOINT newVegas:RightHandRing1
								{
									OFFSET -17.732719 0.121887 -4.201567
									CHANNELS 3 Xrotation Yrotation Zrotation
									JOINT newVegas:RightHandRing2
									{
										OFFSET -2.733170 0.000000 0.000000
										CHANNELS 3 Xrotation Yrotation Zrotation
										JOINT newVegas:RightHandRing3
										{
											OFFSET -3.178268 0.000000 0.000000
											CHANNELS 3 Xrotation Yrotation Zrotation
											End Site
											{
												OFFSET -0.119102 3.170624 0.185394
											}
										}
									}
								}
								JOINT newVegas:RightHandPinky1
								{
									OFFSET -15.989624 -0.606689 -7.535461
									CHANNELS 3 Xrotation Yrotation Zrotation
									JOINT newVegas:RightHandPinky2
									{
										OFFSET -2.538986 0.000000 0.000000
										CHANNELS 3 Xrotation Yrotation Zrotation
										JOINT newVegas:RightHandPinky3
										{
											OFFSET -2.593102 0.000000 0.000000
											CHANNELS 3 Xrotation Yrotation Zrotation
											End Site
											{
												OFFSET 0.150902 2.584198 0.152708
											}
										}
									}
								}
							}
							JOINT newVegas:Right_CapeC
							{
								OFFSET -15.715958 -8.608795 -6.935905
								CHANNELS 3 Xrotation Yrotation Zrotation
								JOINT newVegas:Right_CapeC1
								{
									OFFSET 0.000000 -8.688499 0.000000
									CHANNELS 3 Xrotation Yrotation Zrotation
									End Site
									{
										OFFSET 0.000000 8.688499 0.000000
									}
								}
							}
							JOINT newVegas:Right_Sleeve
							{
								OFFSET -0.267448 -0.649994 0.577675
								CHANNELS 3 Xrotation Yrotation Zrotation
								End Site
								{
									OFFSET 0.000000 15.991302 0.000000
								}
							}
						}
						JOINT newVegas:Right_CapeA
						{
							OFFSET -5.115540 -8.608795 -10.395824
							CHANNELS 3 Xrotation Yrotation Zrotation
							JOINT newVegas:Right_CapeA1
							{
								OFFSET 0.000000 -8.688499 0.000000
								CHANNELS 3 Xrotation Yrotation Zrotation
								End Site
								{
									OFFSET 0.000000 8.688499 0.000000
								}
							}
						}
						JOINT newVegas:Right_CapeB
						{
							OFFSET -26.118187 -8.608795 -7.079266
							CHANNELS 3 Xrotation Yrotation Zrotation
							JOINT newVegas:Right_CapeB1
							{
								OFFSET 0.000000 -8.688499 0.000000
								CHANNELS 3 Xrotation Yrotation Zrotation
								End Site
								{
									OFFSET 0.000000 8.688499 0.000000
								}
							}
						}
					}
				}
				JOINT newVegas:Left_Collar
				{
					OFFSET 18.625099 8.655502 8.828100
					CHANNELS 3 Xrotation Yrotation Zrotation
					JOINT newVegas:Left_Collar1
					{
						OFFSET 14.783401 10.540405 -1.259500
						CHANNELS 3 Xrotation Yrotation Zrotation
						End Site
						{
							OFFSET 0.000000 18.199875 0.000000
						}
					}
				}
				JOINT newVegas:Collar_Back
				{
					OFFSET 0.000000 15.630707 -20.132601
					CHANNELS 3 Xrotation Yrotation Zrotation
					End Site
					{
						OFFSET 0.000000 22.523010 0.000000
					}
				}
				JOINT newVegas:Left_Peck
				{
					OFFSET 17.239599 -5.132599 25.482599
					CHANNELS 3 Xrotation Yrotation Zrotation
					End Site
					{
						OFFSET 0.000000 22.523010 0.000000
					}
				}
				JOINT newVegas:Right_Peck
				{
					OFFSET -17.239599 -5.132202 25.482599
					CHANNELS 3 Xrotation Yrotation Zrotation
					End Site
					{
						OFFSET 0.000000 22.523010 0.000000
					}
				}
				JOINT newVegas:Right_Collar
				{
					OFFSET -18.625099 8.655792 8.828100
					CHANNELS 3 Xrotation Yrotation Zrotation
					JOINT newVegas:Right_Collar1
					{
						OFFSET -14.783401 10.539993 -1.259500
						CHANNELS 3 Xrotation Yrotation Zrotation
						End Site
						{
							OFFSET 0.000000 18.199631 0.000000
						}
					}
				}
			}
		}
		JOINT newVegas:Belly
		{
			OFFSET 0.000000 -6.540398 9.014299
			CHANNELS 3 Xrotation Yrotation Zrotation
			End Site
			{
				OFFSET 0.000000 11.566666 0.000000
			}
		}
	}
	JOINT newVegas:ElvisFacialAnim_Joint
	{
		OFFSET 1.000000 -95.330101 -8.825800
		CHANNELS 3 Xrotation Yrotation Zrotation
		End Site
		{
			OFFSET 0.000000 35.315800 0.000000
		}
	}
}
MOTION
Frames: 4
Frame Time: 0.033333
-15.729843 73.543228 183.935364 96.152521 34.408239 -87.202364 0.000002 0.000000 -0.000000 -82.879995 -8.931109 27.188287 50.893942 -2.291131 -2.046559 -10.621629 0.436969 -19.995503 -0.000001 -0.000000 0.000000 -0.000001 0.000000 0.000000 -89.469857 30.092048 -34.944453 76.477396 6.505870 3.302615 6.548962 -12.982619 44.991341 -0.000000 -0.000001 0.000001 0.000003 0.000001 0.000001 13.908465 2.015124 0.172575 27.834725 4.129567 -0.098710 27.834730 4.129564 -0.098704 0.449579 -0.315676 0.061862 0.449558 -0.315712 0.061853 -0.000001 0.000001 -0.000001 0.449571 -0.315684 0.061851 0.449554 -0.315694 0.061859 0.000001 -0.000001 -0.000000 -0.000001 0.000001 -0.000000 0.564400 -2.395361 0.930276 -22.696775 -13.587832 -9.215017 0.135333 -70.359616 0.145516 23.877858 1.651108 40.942210 7.350857 -14.484232 -10.934833 -1.067073 0.182844 1.946102 0.000005 -0.000001 -0.000001 5.776130 -9.584551 -10.641316 0.033758 0.666549 -10.636480 -0.000002 0.000000 -0.000001 1.641895 7.127188 -4.239692 -0.187968 -0.789348 -15.969025 -0.000003 -0.000002 -0.000000 1.677305 11.039950 -8.046057 -0.183075 -2.876879 -23.912180 0.000000 -0.000001 -0.000000 0.734574 28.047552 -16.218752 -0.849516 -6.142188 -29.148249 -0.000001 -0.000003 -0.000001 -0.000000 -0.000002 -0.000002 -0.000000 -0.000002 -0.000002 -0.000000 -0.000001 -0.000002 0.000000 0.000000 -0.000001 -0.000000 0.000000 -0.000001 0.000000 0.000000 -0.000001 -0.000000 0.000000 -0.000001 0.469802 2.281311 -9.871642 -48.413918 29.918954 -15.847161 0.005315 44.117107 -0.080792 -13.210218 13.022546 1.292373 -11.179666 9.418023 4.586170 -1.210150 -0.220452 -2.120984 0.000003 -0.000002 -0.000001 8.094525 12.292274 -3.487892 0.012533 -0.647880 4.076587 -0.000003 0.000004 -0.000000 -2.756448 2.302092 -4.562933 -0.123708 0.402443 14.726316 0.000000 -0.000003 0.000001 -0.220477 -12.591410 12.232011 -0.176776 1.970499 13.889248 0.000000 0.000001 -0.000000 -3.542870 -22.563144 24.738699 -0.120183 4.569169 9.582984 -0.000000 0.000002 -0.000001 -0.000000 -0.000000 -0.000002 -0.000000 -0.000000 -0.000001 -0.000001 -0.000000 -0.000003 0.000002 0.000000 -0.000001 0.000001 0.000001 -0.000003 0.000002 0.000000 -0.000001 0.000001 0.000001 -0.000001 0.000002 -0.000001 0.000000 0.000002 -0.000001 0.000000 0.000002 -0.000001 0.000000 0.000002 -0.000001 0.000000 0.000002 -0.000001 0.000000 0.000002 -0.000001 0.000000 0.000002 -0.000001 0.000000 0.000001 -0.000001 -0.000000 0.000002 0.000000 -0.000000 
-17.272049 73.393311 183.177429 97.900025 37.949416 -87.217534 -0.000001 -0.000001 -0.000001 -86.069652 -9.247467 24.453870 54.108024 -2.282929 -2.154311 -1.550673 -2.642738 -18.023744 0.000001 -0.000000 -0.000000 -0.000000 0.000000 -0.000001 -84.625279 35.650835 -35.932310 77.533849 7.275628 3.429745 8.293048 -15.353341 49.016115 -0.000000 0.000004 -0.000002 -0.000002 0.000001 -0.000001 13.759323 2.589582 0.224194 27.550552 5.139185 -0.174260 27.550550 5.139213 -0.174262 0.752696 -0.450879 -0.038037 0.752684 -0.450855 -0.038037 0.000001 -0.000001 -0.000001 0.752725 -0.450878 -0.038021 0.752725 -0.450869 -0.038046 -0.000006 -0.000001 -0.000000 0.000001 -0.000001 0.000000 0.573805 -2.401032 -0.078300 -16.606510 -5.199854 -15.198199 0.160824 -74.392576 0.177254 20.901817 4.223949 38.762471 7.350849 -14.484222 -10.934818 -1.067052 0.182846 1.946083 0.000000 -0.000003 -0.000003 5.776127 -9.584539 -10.641331 0.033772 0.666538 -10.636488 0.000001 0.000004 -0.000001 1.641876 7.127187 -4.239644 -0.187944 -0.789350 -15.969044 -0.000001 0.000000 0.000000 1.677303 11.039947 -8.046056 -0.183050 -2.876877 -23.912176 -0.000001 -0.000001 0.000002 0.734603 28.047550 -16.218776 -0.849528 -6.142201 -29.148283 0.000001 0.000002 0.000000 0.000001 -0.000000 -0.000003 0.000001 -0.000000 -0.000003 0.000001 0.000000 -0.000003 0.000000 0.000001 -0.000000 -0.000000 0.000000 0.000000 0.000000 0.000001 -0.000000 -0.000000 -0.000000 -0.000000 0.340972 0.733327 -8.715822 -45.989368 30.278225 -14.496692 -0.007605 40.135042 -0.082763 -6.327109 9.563290 -0.570452 -9.702417 10.042360 5.684068 -1.210155 -0.220444 -2.120985 0.000001 -0.000001 -0.000002 8.599195 12.439089 -1.311809 0.012522 -0.647890 4.076578 0.000002 -0.000001 -0.000001 -2.627322 1.355591 -2.785976 -0.149396 0.495185 16.279855 -0.000001 0.000001 -0.000001 -0.390613 -12.791608 13.570855 -0.188053 2.015321 14.317271 0.000000 -0.000001 0.000000 -3.762860 -22.857899 25.854995 -0.137651 4.666349 10.154472 0.000000 -0.000000 0.000000 0.000000 0.000000 0.000001 -0.000000 0.000000 0.000001 0.000000 0.000000 0.000000 0.000000 -0.000003 -0.000003 0.000000 -0.000003 -0.000003 0.000000 -0.000003 -0.000003 0.000000 -0.000003 -0.000003 -0.000000 -0.000002 0.000000 -0.000000 -0.000002 0.000000 -0.000000 -0.000002 0.000000 -0.000000 -0.000002 0.000000 -0.000000 -0.000002 0.000000 -0.000000 -0.000002 0.000000 -0.000000 -0.000002 0.000000 0.000003 0.000000 -0.000000 -0.000001 -0.000001 -0.000001 
-18.816200 73.462738 181.991959 98.360994 41.353749 -86.171866 -0.000001 0.000000 -0.000001 -89.339919 -9.891290 22.333716 59.393809 -2.535775 -2.348076 3.279751 -5.209679 -16.786559 0.000000 -0.000001 -0.000001 -0.000000 0.000001 -0.000001 -81.371274 38.680570 -38.142734 76.648465 7.612120 3.460871 10.790460 -14.270658 50.554649 -0.000000 0.000001 0.000000 0.000000 0.000000 -0.000002 13.621625 3.238211 0.258844 27.294790 6.332718 -0.274300 27.294766 6.332723 -0.274304 1.147211 -0.482180 -0.496889 1.147203 -0.482178 -0.496865 0.000002 0.000002 -0.000000 1.147196 -0.482190 -0.496890 1.147222 -0.482170 -0.496869 0.000001 0.000001 0.000000 0.000002 0.000002 -0.000001 0.589716 -2.688694 -1.856697 -11.904460 -0.986261 -16.033502 0.224525 -78.331656 0.244418 22.364845 9.181354 33.047078 7.350837 -14.484227 -10.934855 -1.067059 0.182857 1.946109 -0.000000 -0.000001 0.000001 5.776123 -9.584534 -10.641315 0.033764 0.666531 -10.636468 0.000002 -0.000003 0.000001 1.641888 7.127198 -4.239664 -0.187962 -0.789335 -15.969042 -0.000001 0.000005 -0.000000 1.677303 11.039960 -8.046064 -0.183077 -2.876864 -23.912142 -0.000000 0.000001 0.000000 0.734587 28.047543 -16.218762 -0.849521 -6.142191 -29.148266 -0.000000 -0.000005 -0.000001 0.000000 0.000003 -0.000000 0.000000 0.000003 -0.000000 0.000000 0.000003 -0.000000 -0.000001 -0.000002 0.000003 -0.000001 -0.000002 0.000002 -0.000001 -0.000002 0.000003 -0.000001 -0.000003 0.000003 0.075392 -2.762154 -7.766201 -45.650850 33.798115 -10.947869 -0.014225 36.725784 -0.079306 2.653880 4.385051 -2.123950 -8.374431 10.646398 6.695785 -1.210156 -0.220444 -2.120990 0.000001 -0.000003 -0.000001 9.063196 12.651040 0.694521 0.012524 -0.647900 4.076575 -0.000001 0.000001 -0.000003 -2.454074 0.502886 -1.130658 -0.175034 0.579312 17.699503 -0.000000 0.000001 -0.000002 -0.532159 -13.004281 14.833414 -0.200225 2.062283 14.766659 0.000000 0.000001 0.000000 -3.951205 -23.134262 26.934286 -0.157731 4.771718 10.775505 0.000000 0.000002 -0.000000 -0.000000 -0.000000 -0.000001 -0.000000 -0.000001 0.000001 0.000000 -0.000000 -0.000001 0.000001 -0.000001 0.000002 0.000001 0.000000 0.000000 0.000001 -0.000001 0.000002 0.000001 0.000000 0.000002 0.000000 -0.000001 0.000001 0.000000 -0.000001 0.000001 0.000000 -0.000001 0.000001 0.000000 -0.000001 0.000001 0.000000 -0.000001 0.000001 0.000000 -0.000001 0.000001 0.000000 -0.000001 0.000001 -0.000000 -0.000000 -0.000000 -0.000001 0.000000 -0.000001 
-20.319801 73.729652 180.484711 97.385930 44.480524 -84.735211 -0.000001 0.000000 -0.000000 -90.672011 -10.654126 21.363529 62.507883 -2.965589 -2.494863 3.440609 -9.146412 -18.305810 -0.000000 -0.000001 -0.000001 -0.000001 -0.000000 -0.000000 -79.039215 39.589074 -39.811772 73.928895 7.425965 3.384020 13.849637 -11.948580 50.846278 -0.000000 -0.000001 0.000000 0.000001 0.000000 0.000002 13.573688 3.713593 0.251842 27.217267 7.262912 -0.397226 27.217262 7.262917 -0.397237 1.388709 -0.450112 -0.933232 1.388734 -0.450122 -0.933238 -0.000001 0.000001 -0.000000 1.388712 -0.450116 -0.933252 1.388718 -0.450102 -0.933241 0.000000 -0.000001 0.000000 -0.000001 0.000001 -0.000000 0.592835 -2.862404 -2.512540 -10.792727 0.268929 -14.532727 0.286403 -80.293286 0.306900 26.722979 11.204230 27.299718 7.350846 -14.484215 -10.934831 -1.067061 0.182848 1.946066 0.000003 -0.000002 -0.000003 5.776116 -9.584547 -10.641333 0.033764 0.666555 -10.636479 -0.000004 -0.000002 0.000001 1.641874 7.127197 -4.239656 -0.187946 -0.789337 -15.969032 -0.000002 0.000002 -0.000000 1.677301 11.039969 -8.046059 -0.183052 -2.876880 -23.912178 -0.000000 0.000003 -0.000001 0.734578 28.047566 -16.218757 -0.849529 -6.142194 -29.148263 -0.000000 -0.000005 0.000001 -0.000001 0.000002 0.000002 -0.000001 0.000002 0.000002 -0.000001 0.000003 0.000001 0.000002 0.000001 -0.000001 0.000002 0.000000 0.000000 0.000002 0.000001 -0.000001 0.000001 0.000000 -0.000000 -0.107231 -5.365397 -7.352806 -45.241814 38.661265 -7.667870 -0.016694 33.534562 -0.066933 5.250381 -4.677295 -3.441011 -7.226075 11.203491 7.591086 -1.210153 -0.220446 -2.120983 0.000003 -0.000002 -0.000001 9.468495 12.898746 2.469983 0.012523 -0.647885 4.076571 -0.000002 -0.000000 -0.000000 -2.257877 -0.234457 0.348761 -0.199290 0.652682 18.946911 0.000000 0.000001 -0.000000 -0.643786 -13.213786 15.972531 -0.212493 2.108058 15.205534 -0.000000 0.000002 0.000000 -4.105704 -23.383216 27.927844 -0.178945 4.876768 11.395936 -0.000001 -0.000000 -0.000000 0.000000 -0.000000 0.000003 0.000000 -0.000000 0.000001 0.000000 -0.000000 0.000001 0.000001 -0.000001 -0.000000 0.000001 0.000000 -0.000000 0.000001 -0.000001 -0.000000 0.000001 -0.000000 -0.000001 0.000001 0.000001 -0.000000 0.000001 0.000001 -0.000000 0.000001 0.000001 -0.000000 0.000001 0.000001 -0.000000 0.000001 0.000001 -0.000000 0.000001 0.000001 -0.000000 0.000001 0.000001 -0.000000 0.000002 0.000001 -0.000001 -0.000001 0.000000 -0.000000 
